# xmcd
#
# Track frame offsets:
#	150
#	13295
#	31683
#	43951
#	54371
#	67481
#	82454
#	91052
#	96028
#	106934
#	120385
#	135827
#	146725
#	157923
#	170628
#	178519
#	191467
#	209256
#	225744
#	245468
#	256827
#	268570
#	291400
#	305390
#	330531
#
# Disc length: 4750 seconds
#
# Revision: 0
# Processed by: cddbd v1.4PL0 Copyright (c) Steve Scherf et al.
# Submitted via: EasyCDDAExtractor 5.0.0.0
#
DISCID=61128c19
DTITLE=Slightly Stoopid - Live and Direct +
DYEAR=2002
DGENRE=Dub
TTITLE0=Cool Down
TTITLE1=Fire Shot
TTITLE2=Devil's Door
TTITLE3=Sensimilla
TTITLE4=Souled
TTITLE5=I Couldn't Get High
TTITLE6=Nico's
TTITLE7=Mellow Mood
TTITLE8=Cally-Man
TTITLE9=Too Little Too Late
TTITLE10=If This World Were Mine
TTITLE11=Sun Is Shining
TTITLE12=Wiseman
TTITLE13=I Used To Love Her
TTITLE14=Prophet
TTITLE15=Wonderful Tonight
TTITLE16=Stop That Train/Guava Jelly
TTITLE17=Real Thing
TTITLE18=Mexico
TTITLE19=To The Party
TTITLE20=Stop Your Crying
TTITLE21=Devil's Door w/ G. Love
TTITLE22=Mellow Mood w/ G. Love
TTITLE23=Fire Shot Live
TTITLE24=Souls On Fire Live
EXTD=
EXTT0=
EXTT1=
EXTT2=
EXTT3=
EXTT4=
EXTT5=
EXTT6=
EXTT7=
EXTT8=
EXTT9=
EXTT10=
EXTT11=
EXTT12=
EXTT13=
EXTT14=
EXTT15=
EXTT16=
EXTT17=
EXTT18=
EXTT19=
EXTT20=
EXTT21=w/ G.Love and Special Sauce
EXTT22=w/ G.Love and Special Sauce
EXTT23=Live
EXTT24=Live 
PLAYORDER=
